<svg width="33" height="25" viewBox="0 0 33 25" fill="none" xmlns="http://www.w3.org/2000/svg">
<path d="M6.24916 24.7832V23.1347C6.24916 22.5028 5.86606 22.0906 5.20936 22.0906C4.88096 22.0906 4.52526 22.2005 4.27896 22.5577C4.08746 22.2555 3.81376 22.0906 3.40336 22.0906C3.12966 22.0906 2.85606 22.1731 2.63715 22.4753V22.1456H2.0625V24.7832H2.63715V23.327C2.63715 22.8599 2.88342 22.6401 3.26656 22.6401C3.64966 22.6401 3.84116 22.8874 3.84116 23.327V24.7832H4.41576V23.327C4.41576 22.8599 4.68946 22.6401 5.04516 22.6401C5.42826 22.6401 5.61986 22.8874 5.61986 23.327V24.7832H6.24916ZM14.7594 22.1456H13.829V21.3488H13.2544V22.1456H12.7345V22.6676H13.2544V23.8765C13.2544 24.4809 13.5007 24.8381 14.1574 24.8381C14.4037 24.8381 14.6773 24.7557 14.8689 24.6458L14.7047 24.1512C14.5405 24.2611 14.349 24.2886 14.2121 24.2886C13.9385 24.2886 13.829 24.1238 13.829 23.849V22.6676H14.7594V22.1456ZM19.6302 22.0906C19.3018 22.0906 19.0829 22.2555 18.9461 22.4753V22.1456H18.3715V24.7832H18.9461V23.2995C18.9461 22.8599 19.1376 22.6127 19.4934 22.6127C19.6028 22.6127 19.7396 22.6401 19.8491 22.6676L20.0133 22.1181C19.9038 22.0906 19.7396 22.0906 19.6302 22.0906ZM12.2693 22.3654C11.9957 22.1731 11.6126 22.0906 11.2021 22.0906C10.5454 22.0906 10.1075 22.4203 10.1075 22.9424C10.1075 23.382 10.4359 23.6292 11.0106 23.7117L11.2842 23.7391C11.5852 23.7941 11.7494 23.8765 11.7494 24.0139C11.7494 24.2062 11.5305 24.3436 11.1474 24.3436C10.7643 24.3436 10.4633 24.2062 10.2717 24.0688L9.99806 24.5084C10.2991 24.7282 10.7095 24.8381 11.12 24.8381C11.8862 24.8381 12.324 24.4809 12.324 23.9864C12.324 23.5193 11.9683 23.2721 11.421 23.1896L11.1474 23.1622C10.9011 23.1347 10.7095 23.0797 10.7095 22.9149C10.7095 22.7226 10.9011 22.6127 11.2021 22.6127C11.5305 22.6127 11.8588 22.75 12.023 22.8325L12.2693 22.3654ZM27.5384 22.0906C27.21 22.0906 26.9911 22.2555 26.8543 22.4753V22.1456H26.2796V24.7832H26.8543V23.2995C26.8543 22.8599 27.0458 22.6127 27.4016 22.6127C27.511 22.6127 27.6478 22.6401 27.7573 22.6676L27.9215 22.1181C27.812 22.0906 27.6478 22.0906 27.5384 22.0906ZM20.2048 23.4644C20.2048 24.2611 20.7521 24.8381 21.6004 24.8381C21.9835 24.8381 22.2571 24.7557 22.5308 24.5359L22.2571 24.0688C22.0382 24.2337 21.8193 24.3161 21.573 24.3161C21.1078 24.3161 20.7795 23.9864 20.7795 23.4644C20.7795 22.9698 21.1078 22.6401 21.573 22.6127C21.8193 22.6127 22.0382 22.6951 22.2571 22.8599L22.5308 22.3929C22.2571 22.1731 21.9835 22.0906 21.6004 22.0906C20.7521 22.0906 20.2048 22.6676 20.2048 23.4644ZM25.5134 23.4644V22.1456H24.9388V22.4753C24.7472 22.228 24.4736 22.0906 24.1179 22.0906C23.3791 22.0906 22.8044 22.6676 22.8044 23.4644C22.8044 24.2611 23.3791 24.8381 24.1179 24.8381C24.501 24.8381 24.7746 24.7007 24.9388 24.4535V24.7832H25.5134V23.4644ZM23.4064 23.4644C23.4064 22.9973 23.7074 22.6127 24.2 22.6127C24.6652 22.6127 24.9935 22.9698 24.9935 23.4644C24.9935 23.9314 24.6652 24.3161 24.2 24.3161C23.7074 24.2886 23.4064 23.9314 23.4064 23.4644ZM16.5381 22.0906C15.7719 22.0906 15.2246 22.6401 15.2246 23.4644C15.2246 24.2886 15.7719 24.8381 16.5654 24.8381C16.9485 24.8381 17.3316 24.7282 17.6326 24.4809L17.359 24.0688C17.1401 24.2337 16.8664 24.3436 16.5928 24.3436C16.2371 24.3436 15.8813 24.1787 15.7992 23.7117H17.7421V23.4919C17.7694 22.6401 17.2769 22.0906 16.5381 22.0906ZM16.5381 22.5852C16.8938 22.5852 17.1401 22.805 17.1948 23.2171H15.8266C15.8813 22.8599 16.1276 22.5852 16.5381 22.5852ZM30.7947 23.4644V21.1016H30.22V22.4753C30.0285 22.228 29.7549 22.0906 29.3991 22.0906C28.6603 22.0906 28.0856 22.6676 28.0856 23.4644C28.0856 24.2611 28.6603 24.8381 29.3991 24.8381C29.7822 24.8381 30.0559 24.7007 30.22 24.4535V24.7832H30.7947V23.4644ZM28.6877 23.4644C28.6877 22.9973 28.9887 22.6127 29.4812 22.6127C29.9464 22.6127 30.2748 22.9698 30.2748 23.4644C30.2748 23.9314 29.9464 24.3161 29.4812 24.3161C28.9887 24.2886 28.6877 23.9314 28.6877 23.4644ZM9.47816 23.4644V22.1456H8.90346V22.4753C8.71196 22.228 8.43826 22.0906 8.08256 22.0906C7.34376 22.0906 6.76906 22.6676 6.76906 23.4644C6.76906 24.2611 7.34376 24.8381 8.08256 24.8381C8.46566 24.8381 8.73926 24.7007 8.90346 24.4535V24.7832H9.47816V23.4644ZM7.34376 23.4644C7.34376 22.9973 7.64476 22.6127 8.13726 22.6127C8.60246 22.6127 8.93086 22.9698 8.93086 23.4644C8.93086 23.9314 8.60246 24.3161 8.13726 24.3161C7.64476 24.2886 7.34376 23.9314 7.34376 23.4644Z" fill="black"/>
<path d="M20.6958 2.11523H12.0762V17.6659H20.6958V2.11523Z" fill="#FF5F00"/>
<path d="M12.6242 9.8909C12.6242 6.7313 14.1018 3.92887 16.373 2.11555C14.7038 0.79676 12.5968 0 10.2982 0C4.85285 0 0.447266 4.42341 0.447266 9.8909C0.447266 15.3583 4.85285 19.7817 10.2982 19.7817C12.5968 19.7817 14.7038 18.985 16.373 17.6662C14.1018 15.8803 12.6242 13.0504 12.6242 9.8909Z" fill="#EB001B"/>
<path d="M32.3262 9.8909C32.3262 15.3583 27.9206 19.7817 22.4752 19.7817C20.1766 19.7817 18.0696 18.985 16.4004 17.6662C18.6989 15.8529 20.1492 13.0504 20.1492 9.8909C20.1492 6.7313 18.6716 3.92887 16.4004 2.11555C18.0696 0.79676 20.1766 0 22.4752 0C27.9206 0 32.3262 4.45089 32.3262 9.8909Z" fill="#F79E1B"/>
</svg>
