<svg width="43" height="18" viewBox="0 0 43 18" fill="none" xmlns="http://www.w3.org/2000/svg">
<path d="M20.8104 8.5492V13.679H19.1855V1.01062H23.495C24.0094 0.999857 24.5208 1.09123 24.9998 1.27946C25.4787 1.4677 25.9157 1.74907 26.2855 2.10734C26.6591 2.44385 26.9564 2.85655 27.1574 3.3177C27.3585 3.7789 27.4587 4.2778 27.4512 4.7809C27.4619 5.2867 27.3633 5.7889 27.1621 6.253C26.9609 6.7171 26.6619 7.1321 26.2855 7.4696C25.532 8.1893 24.6018 8.5488 23.495 8.5482H20.8104V8.5492ZM20.8104 2.57028V6.9925H23.5353C23.8341 7.0014 24.1314 6.9477 24.4082 6.8349C24.685 6.7222 24.9353 6.5527 25.1431 6.3375C25.3497 6.1363 25.514 5.8957 25.6261 5.6298C25.7383 5.3639 25.7961 5.0781 25.7961 4.7895C25.7961 4.5008 25.7383 4.2151 25.6261 3.9492C25.514 3.6833 25.3497 3.4427 25.1431 3.2415C24.9379 3.0217 24.6885 2.84815 24.4113 2.73226C24.1342 2.61638 23.8356 2.56082 23.5353 2.56927H20.8104V2.57028Z" fill="#5F6368"/>
<path d="M31.1961 4.72852C32.3971 4.72852 33.3451 5.05001 34.0402 5.69281C34.7352 6.33571 35.0824 7.21712 35.0817 8.33712V13.6792H33.5275V12.4763H33.4568C32.784 13.4669 31.8891 13.9622 30.7722 13.9622C29.8188 13.9622 29.0212 13.6792 28.3793 13.1131C28.0713 12.8533 27.825 12.5279 27.6584 12.1607C27.4919 11.7935 27.4092 11.3937 27.4165 10.9904C27.4165 10.0935 27.7549 9.38022 28.4318 8.85062C29.1087 8.32092 30.0123 8.05542 31.1426 8.05412C32.1075 8.05412 32.9021 8.23091 33.5265 8.58471V8.21272C33.5283 7.93782 33.469 7.66591 33.3529 7.41681C33.2369 7.16771 33.0669 6.94752 32.8553 6.77242C32.4256 6.38412 31.8656 6.17222 31.2869 6.17902C30.3793 6.17902 29.6611 6.56242 29.1322 7.32932L27.7011 6.42671C28.4883 5.29461 29.6533 4.72852 31.1961 4.72852ZM29.0939 11.0258C29.0928 11.2329 29.1411 11.4373 29.2349 11.6219C29.3286 11.8065 29.465 11.966 29.6328 12.0871C29.9922 12.3703 30.4382 12.5203 30.8954 12.5117C31.581 12.5105 32.2383 12.2372 32.7231 11.7516C33.2614 11.2441 33.5305 10.6488 33.5305 9.96552C33.0239 9.56121 32.3174 9.35901 31.4111 9.35901C30.751 9.35901 30.2007 9.51841 29.76 9.83711C29.3149 10.1606 29.0939 10.5538 29.0939 11.0258Z" fill="#5F6368"/>
<path d="M44.003 5.01172L38.5773 17.5002H36.8999L38.9134 13.1305L35.3457 5.01172H37.1119L39.6905 11.2383H39.7258L42.2338 5.01172H44.003Z" fill="#5F6368"/>
<path d="M14.2435 7.44269C14.2441 6.94679 14.2023 6.45169 14.1184 5.96289H7.26562V8.76579H11.1905C11.1102 9.21349 10.9402 9.64029 10.6908 10.0204C10.4414 10.4005 10.1177 10.726 9.73933 10.9775V12.7969H12.0817C13.4533 11.5304 14.2435 9.65739 14.2435 7.44269Z" fill="#4285F4"/>
<path d="M7.2659 14.5548C9.22689 14.5548 10.878 13.9099 12.082 12.798L9.73959 10.9786C9.08759 11.4213 8.24789 11.674 7.2659 11.674C5.37054 11.674 3.76181 10.3943 3.18654 8.66992H0.773438V10.545C1.37824 11.7503 2.30565 12.7636 3.45211 13.4717C4.59858 14.1797 5.91898 14.5547 7.2659 14.5548Z" fill="#219653"/>
<path d="M3.18686 8.67057C2.88273 7.76697 2.88273 6.78837 3.18686 5.88477V4.00977H0.77376C0.26497 5.02377 0 6.14287 0 7.27767C0 8.41247 0.26497 9.53157 0.77376 10.5456L3.18686 8.67057Z" fill="#FBBC04"/>
<path d="M7.2659 2.88126C8.30219 2.86431 9.30349 3.2564 10.0534 3.9729L12.1274 1.89573C10.8123 0.658587 9.07009 -0.0206323 7.2659 0.000477727C5.91898 0.000537727 4.59858 0.375537 3.45211 1.08361C2.30565 1.79169 1.37824 2.80497 0.773438 4.0103L3.18654 5.8854C3.76181 4.1609 5.37054 2.88126 7.2659 2.88126Z" fill="#EA4335"/>
</svg>
