<svg width="43" height="18" viewBox="0 0 43 18" fill="none" xmlns="http://www.w3.org/2000/svg">
<path d="M8.04457 2.32065C7.52895 2.92864 6.70395 3.4082 5.87895 3.3397C5.77582 2.5176 6.17973 1.64415 6.65238 1.10466C7.16801 0.47954 8.07037 0.03425 8.80087 0C8.88677 0.85633 8.55157 1.69553 8.04457 2.32065ZM8.79227 3.5024C7.5977 3.4339 6.57504 4.1789 6.00785 4.1789C5.43207 4.1789 4.5641 3.5366 3.61879 3.5538C2.38988 3.5709 1.24692 4.2645 0.619566 5.3692C-0.669494 7.5785 0.284416 10.8497 1.53051 12.648C2.14067 13.5385 2.87113 14.5147 3.83363 14.4805C4.74457 14.4462 5.10551 13.8896 6.20551 13.8896C7.3141 13.8896 7.63207 14.4805 8.59457 14.4634C9.59147 14.4462 10.2188 13.5728 10.829 12.6822C11.5251 11.6717 11.8087 10.687 11.8259 10.6356C11.8087 10.6185 9.90087 9.8906 9.88367 7.6984C9.86647 5.8658 11.3876 4.9924 11.4563 4.941C10.5969 3.6736 9.25627 3.5366 8.79227 3.5024ZM15.693 1.01903V14.3692H17.7727V9.8049H20.6516C23.2813 9.8049 25.129 8.0067 25.129 5.4034C25.129 2.80019 23.3157 1.01903 20.7204 1.01903H15.693ZM17.7727 2.76594H20.1704C21.9751 2.76594 23.0063 3.725 23.0063 5.412C23.0063 7.099 21.9751 8.0666 20.1618 8.0666H17.7727V2.76594ZM28.9274 14.4719C30.2337 14.4719 31.4454 13.8126 31.9954 12.7678H32.0383V14.3692H33.9634V7.7241C33.9634 5.7973 32.4165 4.5557 30.036 4.5557C27.8274 4.5557 26.1946 5.8145 26.1344 7.5442H28.0079C28.1626 6.7222 28.9274 6.1827 29.9758 6.1827C31.2477 6.1827 31.961 6.7735 31.961 7.8611V8.5975L29.3657 8.7517C26.9509 8.8972 25.6446 9.882 25.6446 11.5947C25.6446 13.3245 26.9938 14.4719 28.9274 14.4719ZM29.486 12.8877C28.3774 12.8877 27.6727 12.3568 27.6727 11.5433C27.6727 10.7041 28.3516 10.216 29.6493 10.1389L31.961 9.9933V10.7469C31.961 11.9971 30.8954 12.8877 29.486 12.8877ZM36.5329 18C38.561 18 39.5149 17.2293 40.3485 14.8915L44.0009 4.6841H41.8868L39.4376 12.5709H39.3946L36.9454 4.6841H34.7712L38.2946 14.4034L38.1055 14.9943C37.7876 15.9962 37.2719 16.3815 36.3524 16.3815C36.1891 16.3815 35.8712 16.3644 35.7423 16.3473V17.9486C35.8626 17.9829 36.3782 18 36.5329 18Z" fill="black"/>
</svg>
