<svg width="48" height="32" viewBox="0 0 48 32" fill="none" xmlns="http://www.w3.org/2000/svg">
<g clip-path="url(#clip0_7_959)">
<path d="M16.7721 10.3122L13.2943 19.3344L12.955 17.4649C12.1067 15.189 10.2406 12.8319 8.03516 11.9378L11.2585 23.561H14.9907L20.5892 10.3122H16.7721ZM19.7409 23.561L21.9464 10.3122H25.509L23.3036 23.561H19.7409ZM40.9471 18.8467C41.2016 18.1152 42.3891 15.1078 42.3891 15.1078C42.3891 15.1078 42.6436 14.3762 42.8981 13.8073L43.1525 14.9452L44.0008 18.7654H40.9471V18.8467ZM45.2732 10.3122H42.5588C41.7105 10.3122 41.0319 10.556 40.6926 11.4501L35.4335 23.561H39.1658C39.1658 23.561 39.7596 21.9354 39.9292 21.5289C40.3533 21.5289 44.0008 21.5289 44.5097 21.5289C44.5946 22.0166 44.9339 23.4797 44.9339 23.4797H48.242C48.1572 23.561 45.2732 10.3122 45.2732 10.3122ZM36.1969 10.6373C35.5183 10.3935 34.4156 10.0684 32.9736 10.0684C29.4958 10.0684 26.951 11.8565 26.951 14.4575C26.951 16.327 28.7323 17.4649 30.0895 18.0339C31.4467 18.6841 31.9557 19.0905 31.9557 19.6595C31.9557 20.5536 30.853 20.96 29.8351 20.96C28.393 20.96 27.6296 20.7974 26.5269 20.2285L26.018 20.0659L25.509 22.992C26.3573 23.3984 27.8841 23.6423 29.4958 23.7235C33.2281 23.7235 35.688 21.9354 35.688 19.1718C35.688 17.6275 34.7549 16.4895 32.7191 15.5955C31.4467 14.9452 30.6833 14.5388 30.7681 13.9698C30.7681 13.4009 31.4467 12.8319 32.8039 12.8319C33.737 12.8319 34.6701 12.9945 35.4335 13.3196L35.7728 13.4822C35.688 13.4822 36.1969 10.6373 36.1969 10.6373Z" fill="#1B548E"/>
<path d="M10.5632 10.0684H5V10.3241C9.33604 11.5174 12.1177 14.3303 13.3448 17.6546L12.1177 11.2617C11.8722 10.3241 11.2995 10.0684 10.5632 10.0684Z" fill="#E89F3E"/>
</g>
<defs>
<clipPath id="clip0_7_959">
<rect width="48" height="32" fill="white"/>
</clipPath>
</defs>
</svg>
